<svg width="156" height="38" viewBox="0 0 156 38" fill="none" xmlns="http://www.w3.org/2000/svg">
<path d="M0 8C0 3.58172 3.58172 0 8 0H148C152.418 0 156 3.58172 156 8V30C156 34.4183 152.418 38 148 38H8C3.58172 38 0 34.4183 0 30V8Z" fill="#EAB308"/>
<path d="M22.8716 16.7717H20.8794C20.8226 16.445 20.7179 16.1555 20.5652 15.9034C20.4125 15.6477 20.2225 15.4311 19.9952 15.2536C19.7679 15.076 19.5087 14.9428 19.2175 14.854C18.9299 14.7617 18.6191 14.7156 18.2853 14.7156C17.6923 14.7156 17.1667 14.8647 16.7086 15.163C16.2505 15.4577 15.8919 15.891 15.6326 16.4627C15.3734 17.0309 15.2438 17.7251 15.2438 18.5455C15.2438 19.38 15.3734 20.0831 15.6326 20.6548C15.8954 21.223 16.2541 21.6527 16.7086 21.9439C17.1667 22.2315 17.6905 22.3754 18.28 22.3754C18.6067 22.3754 18.9121 22.3327 19.1962 22.2475C19.4838 22.1587 19.7413 22.0291 19.9686 21.8587C20.1994 21.6882 20.3929 21.4787 20.5492 21.2301C20.709 20.9815 20.8191 20.6974 20.8794 20.3778L22.8716 20.3885C22.797 20.907 22.6355 21.3935 22.3869 21.848C22.1419 22.3026 21.8205 22.7038 21.4228 23.0518C21.025 23.3963 20.5598 23.6662 20.0272 23.8615C19.4945 24.0533 18.9032 24.1491 18.2534 24.1491C17.2946 24.1491 16.4387 23.9272 15.6859 23.4833C14.9331 23.0394 14.34 22.3984 13.9068 21.5604C13.4735 20.7223 13.2569 19.7173 13.2569 18.5455C13.2569 17.37 13.4753 16.3651 13.9121 15.5305C14.3489 14.6925 14.9437 14.0515 15.6965 13.6076C16.4494 13.1637 17.3017 12.9418 18.2534 12.9418C18.8606 12.9418 19.4252 13.027 19.9473 13.1974C20.4693 13.3679 20.9345 13.6183 21.3429 13.9485C21.7512 14.2752 22.0868 14.6765 22.3496 15.1523C22.6159 15.6246 22.7899 16.1644 22.8716 16.7717ZM29.3799 21.7575L31.8089 15.8182H33.3643L30.0564 24H28.7088L25.4755 15.8182H27.0149L29.3799 21.7575ZM26.5302 15.8182V24H24.6711V15.8182H26.5302ZM32.3096 24V15.8182H34.1527V24H32.3096ZM39.7408 24.1598C38.9418 24.1598 38.2493 23.984 37.6634 23.6325C37.0775 23.2809 36.6229 22.7891 36.2998 22.157C35.9802 21.5249 35.8204 20.7862 35.8204 19.9411C35.8204 19.0959 35.9802 18.3555 36.2998 17.7198C36.6229 17.0842 37.0775 16.5906 37.6634 16.239C38.2493 15.8874 38.9418 15.7116 39.7408 15.7116C40.5398 15.7116 41.2323 15.8874 41.8182 16.239C42.4042 16.5906 42.8569 17.0842 43.1765 17.7198C43.4997 18.3555 43.6613 19.0959 43.6613 19.9411C43.6613 20.7862 43.4997 21.5249 43.1765 22.157C42.8569 22.7891 42.4042 23.2809 41.8182 23.6325C41.2323 23.984 40.5398 24.1598 39.7408 24.1598ZM39.7515 22.6151C40.1847 22.6151 40.5469 22.4961 40.8381 22.2582C41.1293 22.0167 41.3459 21.6935 41.488 21.2887C41.6336 20.8839 41.7064 20.4329 41.7064 19.9357C41.7064 19.435 41.6336 18.9822 41.488 18.5774C41.3459 18.169 41.1293 17.8441 40.8381 17.6026C40.5469 17.3612 40.1847 17.2404 39.7515 17.2404C39.3076 17.2404 38.9383 17.3612 38.6435 17.6026C38.3523 17.8441 38.1339 18.169 37.9883 18.5774C37.8463 18.9822 37.7753 19.435 37.7753 19.9357C37.7753 20.4329 37.8463 20.8839 37.9883 21.2887C38.1339 21.6935 38.3523 22.0167 38.6435 22.2582C38.9383 22.4961 39.3076 22.6151 39.7515 22.6151ZM44.4714 17.4002V15.8182H51.6304V17.4002H48.9831V24H47.1187V17.4002H44.4714ZM53.2409 27.0682V15.8182H55.1372V17.1712H55.249C55.3485 16.9723 55.4887 16.761 55.6698 16.5373C55.8509 16.31 56.096 16.1165 56.4049 15.9567C56.7139 15.7933 57.1081 15.7116 57.5875 15.7116C58.2196 15.7116 58.7895 15.8732 59.2973 16.1964C59.8087 16.516 60.2135 16.9901 60.5118 17.6186C60.8137 18.2436 60.9646 19.0107 60.9646 19.9197C60.9646 20.8182 60.8172 21.5817 60.5225 22.2102C60.2277 22.8388 59.8264 23.3182 59.3186 23.6484C58.8108 23.9787 58.2355 24.1438 57.5928 24.1438C57.124 24.1438 56.7352 24.0657 56.4262 23.9094C56.1173 23.7532 55.8687 23.565 55.6805 23.3448C55.4958 23.1211 55.352 22.9098 55.249 22.7109H55.1691V27.0682H53.2409ZM55.1318 19.9091C55.1318 20.4382 55.2064 20.9016 55.3556 21.2994C55.5083 21.6971 55.7267 22.0078 56.0107 22.2315C56.2984 22.4517 56.6464 22.5618 57.0548 22.5618C57.4809 22.5618 57.8378 22.4482 58.1255 22.2209C58.4131 21.9901 58.6297 21.6758 58.7753 21.2781C58.9245 20.8768 58.999 20.4205 58.999 19.9091C58.999 19.4013 58.9262 18.9503 58.7806 18.5561C58.635 18.1619 58.4184 17.853 58.1308 17.6293C57.8431 17.4055 57.4845 17.2937 57.0548 17.2937C56.6429 17.2937 56.2931 17.402 56.0054 17.6186C55.7178 17.8352 55.4994 18.1388 55.3502 18.5295C55.2046 18.9201 55.1318 19.38 55.1318 19.9091ZM66.313 24.1598C65.4927 24.1598 64.7843 23.9893 64.1877 23.6484C63.5946 23.304 63.1383 22.8175 62.8187 22.1889C62.4991 21.5568 62.3393 20.8129 62.3393 19.957C62.3393 19.1154 62.4991 18.3768 62.8187 17.7411C63.1419 17.1019 63.5929 16.6048 64.1717 16.2496C64.7505 15.891 65.4306 15.7116 66.2118 15.7116C66.7161 15.7116 67.1919 15.7933 67.6394 15.9567C68.0904 16.1165 68.4881 16.3651 68.8326 16.7024C69.1806 17.0398 69.454 17.4695 69.6529 17.9915C69.8517 18.5099 69.9512 19.1278 69.9512 19.8452V20.4364H63.2448V19.1367H68.1028C68.0992 18.7674 68.0193 18.4389 67.8631 18.1513C67.7068 17.8601 67.4884 17.631 67.2079 17.4641C66.9309 17.2972 66.6078 17.2138 66.2384 17.2138C65.8443 17.2138 65.498 17.3097 65.1997 17.5014C64.9014 17.6896 64.6688 17.9382 64.5019 18.2472C64.3386 18.5526 64.2551 18.8881 64.2516 19.2539V20.3885C64.2516 20.8643 64.3386 21.2727 64.5126 21.6136C64.6866 21.951 64.9299 22.2102 65.2424 22.3913C65.5549 22.5689 65.9206 22.6577 66.3397 22.6577C66.6202 22.6577 66.8741 22.6186 67.1014 22.5405C67.3286 22.4588 67.5257 22.3398 67.6926 22.1836C67.8595 22.0273 67.9856 21.8338 68.0708 21.603L69.8713 21.8054C69.7576 22.2812 69.541 22.6967 69.2214 23.0518C68.9054 23.4034 68.5005 23.6768 68.0069 23.8722C67.5133 24.0639 66.9487 24.1598 66.313 24.1598ZM70.9756 17.4002V15.8182H78.1347V17.4002H75.4874V24H73.623V17.4002H70.9756ZM81.0502 18.4815H83.4632C84.5072 18.4815 85.3151 18.7354 85.8869 19.2433C86.4586 19.7511 86.7462 20.4169 86.7498 21.2408C86.7462 21.777 86.6148 22.2528 86.3556 22.6683C86.0999 23.0838 85.7271 23.4105 85.237 23.6484C84.7505 23.8828 84.1592 24 83.4632 24H79.7452V15.8182H81.6042V22.418H83.4632C83.8822 22.418 84.2267 22.3114 84.4966 22.0984C84.7665 21.8817 84.9014 21.6048 84.9014 21.2674C84.9014 20.9123 84.7665 20.6229 84.4966 20.3991C84.2267 20.1754 83.8822 20.0636 83.4632 20.0636H81.0502V18.4815ZM93.4716 27.0682C93.2088 27.0682 92.9656 27.0469 92.7418 27.0043C92.5217 26.9652 92.3459 26.919 92.2145 26.8658L92.6619 25.3636C92.9425 25.4453 93.1928 25.4844 93.413 25.4808C93.6332 25.4773 93.8267 25.408 93.9936 25.2731C94.1641 25.1417 94.3079 24.9215 94.4251 24.6126L94.5902 24.1705L91.6232 15.8182H93.6687L95.5543 21.9972H95.6396L97.5306 15.8182H99.5813L96.3054 24.9908C96.1527 25.424 95.9503 25.7951 95.6982 26.104C95.446 26.4165 95.1371 26.6545 94.7713 26.8178C94.4091 26.9847 93.9759 27.0682 93.4716 27.0682ZM100.543 17.4002V15.8182H107.702V17.4002H105.055V24H103.191V17.4002H100.543ZM112.545 24.1598C111.746 24.1598 111.053 23.984 110.467 23.6325C109.881 23.2809 109.427 22.7891 109.104 22.157C108.784 21.5249 108.624 20.7862 108.624 19.9411C108.624 19.0959 108.784 18.3555 109.104 17.7198C109.427 17.0842 109.881 16.5906 110.467 16.239C111.053 15.8874 111.746 15.7116 112.545 15.7116C113.344 15.7116 114.036 15.8874 114.622 16.239C115.208 16.5906 115.661 17.0842 115.98 17.7198C116.304 18.3555 116.465 19.0959 116.465 19.9411C116.465 20.7862 116.304 21.5249 115.98 22.157C115.661 22.7891 115.208 23.2809 114.622 23.6325C114.036 23.984 113.344 24.1598 112.545 24.1598ZM112.555 22.6151C112.989 22.6151 113.351 22.4961 113.642 22.2582C113.933 22.0167 114.15 21.6935 114.292 21.2887C114.437 20.8839 114.51 20.4329 114.51 19.9357C114.51 19.435 114.437 18.9822 114.292 18.5774C114.15 18.169 113.933 17.8441 113.642 17.6026C113.351 17.3612 112.989 17.2404 112.555 17.2404C112.111 17.2404 111.742 17.3612 111.447 17.6026C111.156 17.8441 110.938 18.169 110.792 18.5774C110.65 18.9822 110.579 19.435 110.579 19.9357C110.579 20.4329 110.65 20.8839 110.792 21.2887C110.938 21.6935 111.156 22.0167 111.447 22.2582C111.742 22.4961 112.111 22.6151 112.555 22.6151ZM125.011 15.8182V24H123.157V15.8182H125.011ZM124.143 19.5149V21.0916C123.933 21.1839 123.695 21.2674 123.429 21.342C123.166 21.413 122.887 21.4698 122.593 21.5124C122.301 21.555 122.01 21.5763 121.719 21.5763C120.625 21.5763 119.761 21.3313 119.125 20.8413C118.493 20.3477 118.177 19.5788 118.177 18.5348V15.8075H120.02V18.5348C120.02 18.8864 120.082 19.1687 120.206 19.3817C120.331 19.5948 120.519 19.7511 120.771 19.8505C121.023 19.9464 121.339 19.9943 121.719 19.9943C122.145 19.9943 122.55 19.9517 122.934 19.8665C123.317 19.7812 123.72 19.6641 124.143 19.5149ZM130.648 24.1598C129.828 24.1598 129.12 23.9893 128.523 23.6484C127.93 23.304 127.474 22.8175 127.154 22.1889C126.834 21.5568 126.675 20.8129 126.675 19.957C126.675 19.1154 126.834 18.3768 127.154 17.7411C127.477 17.1019 127.928 16.6048 128.507 16.2496C129.086 15.891 129.766 15.7116 130.547 15.7116C131.051 15.7116 131.527 15.7933 131.975 15.9567C132.426 16.1165 132.823 16.3651 133.168 16.7024C133.516 17.0398 133.789 17.4695 133.988 17.9915C134.187 18.5099 134.287 19.1278 134.287 19.8452V20.4364H127.58V19.1367H132.438C132.435 18.7674 132.355 18.4389 132.198 18.1513C132.042 17.8601 131.824 17.631 131.543 17.4641C131.266 17.2972 130.943 17.2138 130.574 17.2138C130.18 17.2138 129.833 17.3097 129.535 17.5014C129.237 17.6896 129.004 17.9382 128.837 18.2472C128.674 18.5526 128.59 18.8881 128.587 19.2539V20.3885C128.587 20.8643 128.674 21.2727 128.848 21.6136C129.022 21.951 129.265 22.2102 129.578 22.3913C129.89 22.5689 130.256 22.6577 130.675 22.6577C130.956 22.6577 131.209 22.6186 131.437 22.5405C131.664 22.4588 131.861 22.3398 132.028 22.1836C132.195 22.0273 132.321 21.8338 132.406 21.603L134.207 21.8054C134.093 22.2812 133.876 22.6967 133.557 23.0518C133.241 23.4034 132.836 23.6768 132.342 23.8722C131.849 24.0639 131.284 24.1598 130.648 24.1598ZM135.993 24V15.8182H137.921V19.1207H138.624L141.085 15.8182H143.408L140.377 19.8345L143.44 24H141.106L138.864 20.9158H137.921V24H135.993Z" fill="white"/>
</svg>
