<svg width="228" height="38" viewBox="0 0 228 38" fill="none" xmlns="http://www.w3.org/2000/svg">
<path d="M0 8C0 3.58172 3.58172 0 8 0H220C224.418 0 228 3.58172 228 8V30C228 34.4183 224.418 38 220 38H8C3.58172 38 0 34.4183 0 30V8Z" fill="#EAB308"/>
<path d="M17.2555 24.1491C16.4884 24.1491 15.8066 24.0178 15.21 23.755C14.617 23.4922 14.1482 23.1264 13.8038 22.6577C13.4593 22.1889 13.2764 21.6474 13.2551 21.033H15.258C15.2757 21.3278 15.3734 21.5852 15.5509 21.8054C15.7285 22.022 15.9646 22.1907 16.2594 22.3114C16.5541 22.4322 16.8844 22.4925 17.2502 22.4925C17.6408 22.4925 17.987 22.4251 18.2889 22.2901C18.5907 22.1516 18.8269 21.9599 18.9973 21.7148C19.1678 21.4698 19.2512 21.1875 19.2477 20.8679C19.2512 20.5376 19.166 20.2464 18.992 19.9943C18.818 19.7422 18.5659 19.5451 18.2356 19.4031C17.9089 19.261 17.5147 19.19 17.0531 19.19H16.0889V17.6665H17.0531C17.433 17.6665 17.7651 17.6009 18.0492 17.4695C18.3368 17.3381 18.5623 17.1534 18.7257 16.9155C18.889 16.674 18.9689 16.3952 18.9654 16.0792C18.9689 15.7702 18.8997 15.5021 18.7576 15.2749C18.6191 15.044 18.422 14.8647 18.1664 14.7369C17.9142 14.609 17.6177 14.5451 17.2768 14.5451C16.943 14.5451 16.634 14.6055 16.3499 14.7262C16.0659 14.8469 15.8368 15.0192 15.6628 15.2429C15.4888 15.4631 15.3965 15.7259 15.3858 16.0312H13.4842C13.4984 15.4205 13.6742 14.8842 14.0115 14.4226C14.3524 13.9574 14.807 13.5952 15.3752 13.3359C15.9433 13.0732 16.5808 12.9418 17.2874 12.9418C18.0154 12.9418 18.6475 13.0785 19.1838 13.3519C19.7235 13.6218 20.1408 13.9858 20.4355 14.4439C20.7303 14.902 20.8776 15.408 20.8776 15.962C20.8812 16.5763 20.7001 17.0913 20.3343 17.5067C19.9721 17.9222 19.4963 18.1939 18.9068 18.3217V18.407C19.6738 18.5135 20.2615 18.7976 20.6699 19.2592C21.0818 19.7173 21.286 20.2873 21.2825 20.9691C21.2825 21.5799 21.1085 22.1268 20.7605 22.6097C20.416 23.0891 19.9401 23.4656 19.3329 23.739C18.7292 24.0124 18.0367 24.1491 17.2555 24.1491ZM25.5616 24.1651C25.0431 24.1651 24.5761 24.0728 24.1607 23.8881C23.7487 23.6999 23.422 23.4229 23.1805 23.0572C22.9426 22.6914 22.8236 22.2404 22.8236 21.7042C22.8236 21.2425 22.9089 20.8608 23.0793 20.5589C23.2498 20.2571 23.4824 20.0156 23.7771 19.8345C24.0719 19.6534 24.4039 19.5167 24.7732 19.4244C25.1461 19.3285 25.5314 19.2592 25.9291 19.2166C26.4085 19.1669 26.7974 19.1225 27.0957 19.0835C27.394 19.0408 27.6106 18.9769 27.7455 18.8917C27.884 18.8029 27.9533 18.6662 27.9533 18.4815V18.4496C27.9533 18.0483 27.8343 17.7376 27.5964 17.5174C27.3584 17.2972 27.0158 17.1871 26.5683 17.1871C26.096 17.1871 25.7214 17.2901 25.4444 17.4961C25.1709 17.7021 24.9863 17.9453 24.8904 18.2259L23.09 17.9702C23.232 17.473 23.4664 17.0575 23.7931 16.7237C24.1198 16.3864 24.5193 16.1342 24.9916 15.9673C25.4639 15.7969 25.9859 15.7116 26.5577 15.7116C26.9518 15.7116 27.3442 15.7578 27.7349 15.8501C28.1255 15.9425 28.4824 16.0952 28.8055 16.3082C29.1287 16.5178 29.3879 16.8036 29.5832 17.1658C29.7821 17.5281 29.8815 17.9808 29.8815 18.5241V24H28.0278V22.8761H27.9639C27.8467 23.1033 27.6816 23.3164 27.4685 23.5153C27.259 23.7106 26.9945 23.8686 26.6749 23.9893C26.3588 24.1065 25.9877 24.1651 25.5616 24.1651ZM26.0623 22.7482C26.4494 22.7482 26.7849 22.6719 27.069 22.5192C27.3531 22.3629 27.5715 22.157 27.7242 21.9013C27.8805 21.6456 27.9586 21.3668 27.9586 21.065V20.1009C27.8982 20.1506 27.7952 20.1967 27.6496 20.2393C27.5076 20.282 27.3478 20.3192 27.1702 20.3512C26.9927 20.3832 26.8169 20.4116 26.6429 20.4364C26.4689 20.4613 26.318 20.4826 26.1901 20.5004C25.9025 20.5394 25.645 20.6033 25.4178 20.6921C25.1905 20.7809 25.0111 20.9052 24.8798 21.065C24.7484 21.2212 24.6827 21.4237 24.6827 21.6722C24.6827 22.0273 24.8123 22.2955 25.0715 22.4766C25.3307 22.6577 25.661 22.7482 26.0623 22.7482ZM31.8955 24V15.8182H33.8237V19.1207H34.5268L36.9878 15.8182H39.3102L36.2793 19.8345L39.3422 24H37.0091L34.7665 20.9158H33.8237V24H31.8955ZM42.8649 24.1651C42.3464 24.1651 41.8795 24.0728 41.464 23.8881C41.052 23.6999 40.7253 23.4229 40.4839 23.0572C40.2459 22.6914 40.127 22.2404 40.127 21.7042C40.127 21.2425 40.2122 20.8608 40.3827 20.5589C40.5531 20.2571 40.7857 20.0156 41.0804 19.8345C41.3752 19.6534 41.7072 19.5167 42.0765 19.4244C42.4494 19.3285 42.8347 19.2592 43.2324 19.2166C43.7118 19.1669 44.1007 19.1225 44.399 19.0835C44.6973 19.0408 44.9139 18.9769 45.0488 18.8917C45.1873 18.8029 45.2566 18.6662 45.2566 18.4815V18.4496C45.2566 18.0483 45.1376 17.7376 44.8997 17.5174C44.6618 17.2972 44.3191 17.1871 43.8716 17.1871C43.3993 17.1871 43.0247 17.2901 42.7477 17.4961C42.4743 17.7021 42.2896 17.9453 42.1937 18.2259L40.3933 17.9702C40.5353 17.473 40.7697 17.0575 41.0964 16.7237C41.4231 16.3864 41.8226 16.1342 42.2949 15.9673C42.7672 15.7969 43.2893 15.7116 43.861 15.7116C44.2552 15.7116 44.6476 15.7578 45.0382 15.8501C45.4288 15.9425 45.7857 16.0952 46.1089 16.3082C46.432 16.5178 46.6912 16.8036 46.8866 17.1658C47.0854 17.5281 47.1849 17.9808 47.1849 18.5241V24H45.3312V22.8761H45.2672C45.1501 23.1033 44.9849 23.3164 44.7719 23.5153C44.5623 23.7106 44.2978 23.8686 43.9782 23.9893C43.6621 24.1065 43.291 24.1651 42.8649 24.1651ZM43.3656 22.7482C43.7527 22.7482 44.0883 22.6719 44.3724 22.5192C44.6564 22.3629 44.8748 22.157 45.0275 21.9013C45.1838 21.6456 45.2619 21.3668 45.2619 21.065V20.1009C45.2015 20.1506 45.0986 20.1967 44.953 20.2393C44.8109 20.282 44.6511 20.3192 44.4736 20.3512C44.296 20.3832 44.1202 20.4116 43.9462 20.4364C43.7722 20.4613 43.6213 20.4826 43.4934 20.5004C43.2058 20.5394 42.9483 20.6033 42.7211 20.6921C42.4938 20.7809 42.3145 20.9052 42.1831 21.065C42.0517 21.2212 41.986 21.4237 41.986 21.6722C41.986 22.0273 42.1156 22.2955 42.3748 22.4766C42.6341 22.6577 42.9643 22.7482 43.3656 22.7482ZM48.746 21.7575H50.6583C50.676 22.0629 50.8128 22.299 51.0684 22.4659C51.3241 22.6328 51.6562 22.7163 52.0645 22.7163C52.48 22.7163 52.8298 22.6257 53.1139 22.4446C53.4015 22.2599 53.5454 21.9812 53.5454 21.6083C53.5454 21.3881 53.4903 21.1946 53.3802 21.0277C53.2701 20.8572 53.1157 20.7259 52.9168 20.6335C52.7179 20.5412 52.4836 20.495 52.2137 20.495H50.9619V19.1261H52.2137C52.615 19.1261 52.9186 19.0337 53.1246 18.8491C53.3341 18.6644 53.4388 18.4318 53.4388 18.1513C53.4388 17.8494 53.3287 17.6044 53.1086 17.4162C52.892 17.228 52.5919 17.1339 52.2084 17.1339C51.8248 17.1339 51.5052 17.2209 51.2496 17.3949C50.9974 17.5689 50.866 17.7926 50.8554 18.0661H48.9537C48.9608 17.5902 49.1029 17.1765 49.3799 16.8249C49.6604 16.4734 50.0368 16.1999 50.5091 16.0046C50.985 15.8093 51.5212 15.7116 52.1178 15.7116C52.757 15.7116 53.3092 15.8075 53.7744 15.9993C54.2396 16.1911 54.5983 16.4592 54.8504 16.8036C55.1025 17.1445 55.2286 17.5458 55.2286 18.0075C55.2286 18.4513 55.0901 18.8189 54.8131 19.1101C54.5361 19.3977 54.1633 19.6037 53.6945 19.728V19.8132C54.0177 19.831 54.3089 19.9233 54.5681 20.0902C54.8273 20.2536 55.0333 20.4755 55.186 20.756C55.3387 21.0366 55.415 21.3615 55.415 21.7308C55.415 22.2315 55.2712 22.6648 54.9836 23.0305C54.6959 23.3928 54.3 23.6715 53.7957 23.8668C53.295 24.0621 52.7215 24.1598 52.0752 24.1598C51.4466 24.1598 50.8838 24.0657 50.3866 23.8775C49.893 23.6857 49.5006 23.4105 49.2094 23.0518C48.9182 22.6932 48.7638 22.2617 48.746 21.7575ZM59.3626 24.1651C58.8441 24.1651 58.3771 24.0728 57.9616 23.8881C57.5497 23.6999 57.223 23.4229 56.9815 23.0572C56.7436 22.6914 56.6246 22.2404 56.6246 21.7042C56.6246 21.2425 56.7099 20.8608 56.8803 20.5589C57.0508 20.2571 57.2834 20.0156 57.5781 19.8345C57.8728 19.6534 58.2049 19.5167 58.5742 19.4244C58.9471 19.3285 59.3324 19.2592 59.7301 19.2166C60.2095 19.1669 60.5983 19.1225 60.8966 19.0835C61.1949 19.0408 61.4116 18.9769 61.5465 18.8917C61.685 18.8029 61.7542 18.6662 61.7542 18.4815V18.4496C61.7542 18.0483 61.6353 17.7376 61.3974 17.5174C61.1594 17.2972 60.8167 17.1871 60.3693 17.1871C59.897 17.1871 59.5224 17.2901 59.2454 17.4961C58.9719 17.7021 58.7873 17.9453 58.6914 18.2259L56.891 17.9702C57.033 17.473 57.2674 17.0575 57.5941 16.7237C57.9208 16.3864 58.3203 16.1342 58.7926 15.9673C59.2649 15.7969 59.7869 15.7116 60.3586 15.7116C60.7528 15.7116 61.1452 15.7578 61.5358 15.8501C61.9265 15.9425 62.2834 16.0952 62.6065 16.3082C62.9297 16.5178 63.1889 16.8036 63.3842 17.1658C63.5831 17.5281 63.6825 17.9808 63.6825 18.5241V24H61.8288V22.8761H61.7649C61.6477 23.1033 61.4826 23.3164 61.2695 23.5153C61.06 23.7106 60.7954 23.8686 60.4758 23.9893C60.1598 24.1065 59.7887 24.1651 59.3626 24.1651ZM59.8633 22.7482C60.2503 22.7482 60.5859 22.6719 60.87 22.5192C61.1541 22.3629 61.3725 22.157 61.5252 21.9013C61.6814 21.6456 61.7596 21.3668 61.7596 21.065V20.1009C61.6992 20.1506 61.5962 20.1967 61.4506 20.2393C61.3086 20.282 61.1488 20.3192 60.9712 20.3512C60.7937 20.3832 60.6179 20.4116 60.4439 20.4364C60.2699 20.4613 60.1189 20.4826 59.9911 20.5004C59.7035 20.5394 59.446 20.6033 59.2187 20.6921C58.9915 20.7809 58.8121 20.9052 58.6807 21.065C58.5493 21.2212 58.4836 21.4237 58.4836 21.6722C58.4836 22.0273 58.6133 22.2955 58.8725 22.4766C59.1317 22.6577 59.462 22.7482 59.8633 22.7482ZM64.7802 17.4002V15.8182H71.9393V17.4002H69.292V24H67.4276V17.4002H64.7802ZM74.8548 18.4815H77.2678C78.3118 18.4815 79.1197 18.7354 79.6914 19.2433C80.2632 19.7511 80.5508 20.4169 80.5544 21.2408C80.5508 21.777 80.4194 22.2528 80.1602 22.6683C79.9045 23.0838 79.5316 23.4105 79.0416 23.6484C78.5551 23.8828 77.9638 24 77.2678 24H73.5497V15.8182H75.4088V22.418H77.2678C77.6868 22.418 78.0313 22.3114 78.3012 22.0984C78.5711 21.8817 78.706 21.6048 78.706 21.2674C78.706 20.9123 78.5711 20.6229 78.3012 20.3991C78.0313 20.1754 77.6868 20.0636 77.2678 20.0636H74.8548V18.4815ZM89.6466 24.1598C88.8476 24.1598 88.1551 23.984 87.5692 23.6325C86.9832 23.2809 86.5287 22.7891 86.2055 22.157C85.8859 21.5249 85.7261 20.7862 85.7261 19.9411C85.7261 19.0959 85.8859 18.3555 86.2055 17.7198C86.5287 17.0842 86.9832 16.5906 87.5692 16.239C88.1551 15.8874 88.8476 15.7116 89.6466 15.7116C90.4456 15.7116 91.1381 15.8874 91.724 16.239C92.3099 16.5906 92.7627 17.0842 93.0823 17.7198C93.4055 18.3555 93.567 19.0959 93.567 19.9411C93.567 20.7862 93.4055 21.5249 93.0823 22.157C92.7627 22.7891 92.3099 23.2809 91.724 23.6325C91.1381 23.984 90.4456 24.1598 89.6466 24.1598ZM89.6572 22.6151C90.0905 22.6151 90.4527 22.4961 90.7439 22.2582C91.0351 22.0167 91.2517 21.6935 91.3937 21.2887C91.5393 20.8839 91.6121 20.4329 91.6121 19.9357C91.6121 19.435 91.5393 18.9822 91.3937 18.5774C91.2517 18.169 91.0351 17.8441 90.7439 17.6026C90.4527 17.3612 90.0905 17.2404 89.6572 17.2404C89.2133 17.2404 88.844 17.3612 88.5493 17.6026C88.2581 17.8441 88.0397 18.169 87.8941 18.5774C87.752 18.9822 87.681 19.435 87.681 19.9357C87.681 20.4329 87.752 20.8839 87.8941 21.2887C88.0397 21.6935 88.2581 22.0167 88.5493 22.2582C88.844 22.4961 89.2133 22.6151 89.6572 22.6151ZM101.836 12.7926L102.507 14.0391C102.269 14.245 102.003 14.3942 101.708 14.4865C101.413 14.5788 101.067 14.6392 100.669 14.6676C100.275 14.6925 99.8064 14.7102 99.263 14.7209C98.6522 14.7351 98.1533 14.8505 97.7662 15.0671C97.3792 15.2837 97.0826 15.6122 96.8767 16.0526C96.6707 16.4893 96.5358 17.0469 96.4718 17.7251H96.5624C96.8181 17.2244 97.1767 16.8427 97.6384 16.5799C98.1 16.3171 98.6416 16.1857 99.263 16.1857C99.9413 16.1857 100.54 16.3384 101.058 16.6438C101.58 16.9457 101.987 17.3842 102.278 17.9595C102.573 18.5348 102.72 19.2308 102.72 20.0476C102.72 20.8892 102.562 21.619 102.246 22.2369C101.93 22.8512 101.481 23.3253 100.898 23.6591C100.319 23.9929 99.6323 24.1598 98.8369 24.1598C98.045 24.1598 97.3561 23.9876 96.7701 23.6431C96.1877 23.2951 95.7368 22.782 95.4171 22.1037C95.1011 21.4219 94.9431 20.582 94.9431 19.5842V18.8491C94.9431 16.9244 95.3017 15.4879 96.0191 14.5398C96.7364 13.5916 97.8 13.1087 99.2098 13.0909C99.6288 13.0838 100.003 13.082 100.334 13.0856C100.668 13.0891 100.959 13.0732 101.207 13.0376C101.456 13.0021 101.665 12.9205 101.836 12.7926ZM98.8475 22.6151C99.2417 22.6151 99.5826 22.5138 99.8703 22.3114C100.158 22.1055 100.378 21.8143 100.531 21.4379C100.687 21.0614 100.765 20.6158 100.765 20.1009C100.765 19.593 100.687 19.1616 100.531 18.8065C100.375 18.4478 100.153 18.1744 99.8649 17.9862C99.5773 17.7979 99.2346 17.7038 98.8369 17.7038C98.5386 17.7038 98.2705 17.7571 98.0326 17.8636C97.7946 17.9702 97.5922 18.1264 97.4253 18.3324C97.2584 18.5384 97.1306 18.7887 97.0418 19.0835C96.953 19.3782 96.9051 19.7173 96.898 20.1009C96.898 20.8714 97.072 21.484 97.42 21.9386C97.768 22.3896 98.2439 22.6151 98.8475 22.6151ZM104.436 27.0682V15.8182H106.332V17.1712H106.444C106.543 16.9723 106.684 16.761 106.865 16.5373C107.046 16.31 107.291 16.1165 107.6 15.9567C107.909 15.7933 108.303 15.7116 108.782 15.7116C109.414 15.7116 109.984 15.8732 110.492 16.1964C111.004 16.516 111.408 16.9901 111.707 17.6186C112.008 18.2436 112.159 19.0107 112.159 19.9197C112.159 20.8182 112.012 21.5817 111.717 22.2102C111.423 22.8388 111.021 23.3182 110.513 23.6484C110.006 23.9787 109.43 24.1438 108.788 24.1438C108.319 24.1438 107.93 24.0657 107.621 23.9094C107.312 23.7532 107.064 23.565 106.875 23.3448C106.691 23.1211 106.547 22.9098 106.444 22.7109H106.364V27.0682H104.436ZM106.327 19.9091C106.327 20.4382 106.401 20.9016 106.55 21.2994C106.703 21.6971 106.921 22.0078 107.206 22.2315C107.493 22.4517 107.841 22.5618 108.25 22.5618C108.676 22.5618 109.033 22.4482 109.32 22.2209C109.608 21.9901 109.825 21.6758 109.97 21.2781C110.119 20.8768 110.194 20.4205 110.194 19.9091C110.194 19.4013 110.121 18.9503 109.975 18.5561C109.83 18.1619 109.613 17.853 109.326 17.6293C109.038 17.4055 108.679 17.2937 108.25 17.2937C107.838 17.2937 107.488 17.402 107.2 17.6186C106.913 17.8352 106.694 18.1388 106.545 18.5295C106.399 18.9201 106.327 19.38 106.327 19.9091ZM116.24 24.1651C115.722 24.1651 115.255 24.0728 114.839 23.8881C114.427 23.6999 114.101 23.4229 113.859 23.0572C113.621 22.6914 113.502 22.2404 113.502 21.7042C113.502 21.2425 113.587 20.8608 113.758 20.5589C113.928 20.2571 114.161 20.0156 114.456 19.8345C114.75 19.6534 115.082 19.5167 115.452 19.4244C115.825 19.3285 116.21 19.2592 116.608 19.2166C117.087 19.1669 117.476 19.1225 117.774 19.0835C118.072 19.0408 118.289 18.9769 118.424 18.8917C118.563 18.8029 118.632 18.6662 118.632 18.4815V18.4496C118.632 18.0483 118.513 17.7376 118.275 17.5174C118.037 17.2972 117.694 17.1871 117.247 17.1871C116.775 17.1871 116.4 17.2901 116.123 17.4961C115.849 17.7021 115.665 17.9453 115.569 18.2259L113.768 17.9702C113.911 17.473 114.145 17.0575 114.472 16.7237C114.798 16.3864 115.198 16.1342 115.67 15.9673C116.142 15.7969 116.664 15.7116 117.236 15.7116C117.63 15.7116 118.023 15.7578 118.413 15.8501C118.804 15.9425 119.161 16.0952 119.484 16.3082C119.807 16.5178 120.066 16.8036 120.262 17.1658C120.461 17.5281 120.56 17.9808 120.56 18.5241V24H118.706V22.8761H118.642C118.525 23.1033 118.36 23.3164 118.147 23.5153C117.938 23.7106 117.673 23.8686 117.353 23.9893C117.037 24.1065 116.666 24.1651 116.24 24.1651ZM116.741 22.7482C117.128 22.7482 117.463 22.6719 117.748 22.5192C118.032 22.3629 118.25 22.157 118.403 21.9013C118.559 21.6456 118.637 21.3668 118.637 21.065V20.1009C118.577 20.1506 118.474 20.1967 118.328 20.2393C118.186 20.282 118.026 20.3192 117.849 20.3512C117.671 20.3832 117.495 20.4116 117.321 20.4364C117.147 20.4613 116.996 20.4826 116.869 20.5004C116.581 20.5394 116.324 20.6033 116.096 20.6921C115.869 20.7809 115.69 20.9052 115.558 21.065C115.427 21.2212 115.361 21.4237 115.361 21.6722C115.361 22.0273 115.491 22.2955 115.75 22.4766C116.009 22.6577 116.34 22.7482 116.741 22.7482ZM121.658 17.4002V15.8182H128.817V17.4002H126.169V24H124.305V17.4002H121.658ZM136.047 19.1101V20.6921H131.69V19.1101H136.047ZM132.286 15.8182V24H130.427V15.8182H132.286ZM137.309 15.8182V24H135.456V15.8182H137.309ZM140.64 18.4815H143.053C144.097 18.4815 144.905 18.7354 145.477 19.2433C146.049 19.7511 146.336 20.4169 146.34 21.2408C146.336 21.777 146.205 22.2528 145.946 22.6683C145.69 23.0838 145.317 23.4105 144.827 23.6484C144.341 23.8828 143.749 24 143.053 24H139.335V15.8182H141.194V22.418H143.053C143.472 22.418 143.817 22.3114 144.087 22.0984C144.357 21.8817 144.492 21.6048 144.492 21.2674C144.492 20.9123 144.357 20.6229 144.087 20.3991C143.817 20.1754 143.472 20.0636 143.053 20.0636H140.64V18.4815ZM147.357 24V15.8182H149.286V24H147.357ZM153.208 21.3899L156.484 15.8182H158.465V24H156.601V18.4229L153.336 24H151.349V15.8182H153.208V21.3899ZM155.956 13.0057H157.4C157.4 13.6271 157.174 14.1314 156.723 14.5185C156.276 14.902 155.669 15.0938 154.902 15.0938C154.142 15.0938 153.536 14.902 153.085 14.5185C152.638 14.1314 152.416 13.6271 152.419 13.0057H153.852C153.852 13.2614 153.93 13.4904 154.087 13.6928C154.246 13.8917 154.518 13.9911 154.902 13.9911C155.278 13.9911 155.546 13.8917 155.706 13.6928C155.869 13.494 155.953 13.2649 155.956 13.0057ZM163.863 21.7575H165.776C165.793 22.0629 165.93 22.299 166.186 22.4659C166.442 22.6328 166.774 22.7163 167.182 22.7163C167.597 22.7163 167.947 22.6257 168.231 22.4446C168.519 22.2599 168.663 21.9812 168.663 21.6083C168.663 21.3881 168.608 21.1946 168.498 21.0277C168.388 20.8572 168.233 20.7259 168.034 20.6335C167.835 20.5412 167.601 20.495 167.331 20.495H166.079V19.1261H167.331C167.732 19.1261 168.036 19.0337 168.242 18.8491C168.451 18.6644 168.556 18.4318 168.556 18.1513C168.556 17.8494 168.446 17.6044 168.226 17.4162C168.009 17.228 167.709 17.1339 167.326 17.1339C166.942 17.1339 166.623 17.2209 166.367 17.3949C166.115 17.5689 165.983 17.7926 165.973 18.0661H164.071C164.078 17.5902 164.22 17.1765 164.497 16.8249C164.778 16.4734 165.154 16.1999 165.627 16.0046C166.102 15.8093 166.639 15.7116 167.235 15.7116C167.874 15.7116 168.427 15.8075 168.892 15.9993C169.357 16.1911 169.716 16.4592 169.968 16.8036C170.22 17.1445 170.346 17.5458 170.346 18.0075C170.346 18.4513 170.207 18.8189 169.931 19.1101C169.654 19.3977 169.281 19.6037 168.812 19.728V19.8132C169.135 19.831 169.426 19.9233 169.685 20.0902C169.945 20.2536 170.151 20.4755 170.303 20.756C170.456 21.0366 170.532 21.3615 170.532 21.7308C170.532 22.2315 170.389 22.6648 170.101 23.0305C169.813 23.3928 169.417 23.6715 168.913 23.8668C168.412 24.0621 167.839 24.1598 167.193 24.1598C166.564 24.1598 166.001 24.0657 165.504 23.8775C165.01 23.6857 164.618 23.4105 164.327 23.0518C164.036 22.6932 163.881 22.2617 163.863 21.7575ZM172.126 24V15.8182H175.561C176.531 15.8182 177.296 16.0117 177.857 16.3988C178.422 16.7859 178.704 17.3256 178.704 18.0181C178.704 18.4762 178.544 18.8509 178.225 19.142C177.909 19.4297 177.477 19.6232 176.93 19.7227C177.36 19.7582 177.736 19.8665 178.059 20.0476C178.386 20.2287 178.642 20.4666 178.827 20.7614C179.011 21.0561 179.104 21.3952 179.104 21.7788C179.104 22.2298 178.985 22.6222 178.747 22.956C178.512 23.2862 178.17 23.5437 177.719 23.7283C177.271 23.9094 176.728 24 176.089 24H172.126ZM173.931 22.4819H176.089C176.444 22.4819 176.722 22.3984 176.925 22.2315C177.127 22.0611 177.229 21.8303 177.229 21.5391C177.229 21.2017 177.127 20.9371 176.925 20.7454C176.722 20.5501 176.444 20.4524 176.089 20.4524H173.931V22.4819ZM173.931 19.206H175.599C175.861 19.206 176.087 19.1687 176.275 19.0941C176.463 19.016 176.607 18.9077 176.706 18.7692C176.806 18.6271 176.856 18.4585 176.856 18.2631C176.856 17.9826 176.74 17.7624 176.509 17.6026C176.282 17.4428 175.966 17.3629 175.561 17.3629H173.931V19.206ZM184.339 24.1598C183.54 24.1598 182.847 23.984 182.261 23.6325C181.675 23.2809 181.221 22.7891 180.898 22.157C180.578 21.5249 180.418 20.7862 180.418 19.9411C180.418 19.0959 180.578 18.3555 180.898 17.7198C181.221 17.0842 181.675 16.5906 182.261 16.239C182.847 15.8874 183.54 15.7116 184.339 15.7116C185.138 15.7116 185.83 15.8874 186.416 16.239C187.002 16.5906 187.455 17.0842 187.774 17.7198C188.098 18.3555 188.259 19.0959 188.259 19.9411C188.259 20.7862 188.098 21.5249 187.774 22.157C187.455 22.7891 187.002 23.2809 186.416 23.6325C185.83 23.984 185.138 24.1598 184.339 24.1598ZM184.349 22.6151C184.783 22.6151 185.145 22.4961 185.436 22.2582C185.727 22.0167 185.944 21.6935 186.086 21.2887C186.232 20.8839 186.304 20.4329 186.304 19.9357C186.304 19.435 186.232 18.9822 186.086 18.5774C185.944 18.169 185.727 17.8441 185.436 17.6026C185.145 17.3612 184.783 17.2404 184.349 17.2404C183.906 17.2404 183.536 17.3612 183.241 17.6026C182.95 17.8441 182.732 18.169 182.586 18.5774C182.444 18.9822 182.373 19.435 182.373 19.9357C182.373 20.4329 182.444 20.8839 182.586 21.2887C182.732 21.6935 182.95 22.0167 183.241 22.2582C183.536 22.4961 183.906 22.6151 184.349 22.6151ZM195.591 19.1101V20.6921H191.233V19.1101H195.591ZM191.83 15.8182V24H189.971V15.8182H191.83ZM196.853 15.8182V24H194.999V15.8182H196.853ZM202.448 24.1598C201.649 24.1598 200.956 23.984 200.37 23.6325C199.784 23.2809 199.33 22.7891 199.007 22.157C198.687 21.5249 198.527 20.7862 198.527 19.9411C198.527 19.0959 198.687 18.3555 199.007 17.7198C199.33 17.0842 199.784 16.5906 200.37 16.239C200.956 15.8874 201.649 15.7116 202.448 15.7116C203.247 15.7116 203.939 15.8874 204.525 16.239C205.111 16.5906 205.564 17.0842 205.883 17.7198C206.207 18.3555 206.368 19.0959 206.368 19.9411C206.368 20.7862 206.207 21.5249 205.883 22.157C205.564 22.7891 205.111 23.2809 204.525 23.6325C203.939 23.984 203.247 24.1598 202.448 24.1598ZM202.458 22.6151C202.892 22.6151 203.254 22.4961 203.545 22.2582C203.836 22.0167 204.053 21.6935 204.195 21.2887C204.34 20.8839 204.413 20.4329 204.413 19.9357C204.413 19.435 204.34 18.9822 204.195 18.5774C204.053 18.169 203.836 17.8441 203.545 17.6026C203.254 17.3612 202.892 17.2404 202.458 17.2404C202.014 17.2404 201.645 17.3612 201.35 17.6026C201.059 17.8441 200.841 18.169 200.695 18.5774C200.553 18.9822 200.482 19.435 200.482 19.9357C200.482 20.4329 200.553 20.8839 200.695 21.2887C200.841 21.6935 201.059 22.0167 201.35 22.2582C201.645 22.4961 202.014 22.6151 202.458 22.6151ZM208.08 24V15.8182H210.008V19.1207H210.711L213.172 15.8182H215.495L212.464 19.8345L215.527 24H213.193L210.951 20.9158H210.008V24H208.08Z" fill="white"/>
</svg>
