<svg width="124" height="25" viewBox="0 0 124 25" fill="none" xmlns="http://www.w3.org/2000/svg">
<path d="M7.34659 19.5H0.643466V0.590909H7.40199C9.30398 0.590909 10.9413 0.96946 12.3139 1.72656C13.6866 2.47751 14.7422 3.55776 15.4808 4.96733C16.2256 6.37689 16.598 8.06345 16.598 10.027C16.598 11.9967 16.2256 13.6894 15.4808 15.1051C14.7422 16.5208 13.6804 17.6072 12.2955 18.3643C10.9167 19.1214 9.26705 19.5 7.34659 19.5ZM4.64134 16.0746H7.1804C8.36222 16.0746 9.3563 15.8653 10.1626 15.4467C10.9751 15.022 11.5845 14.3665 11.9908 13.4801C12.4032 12.5876 12.6094 11.4366 12.6094 10.027C12.6094 8.62973 12.4032 7.48793 11.9908 6.60156C11.5845 5.7152 10.9782 5.06274 10.1719 4.64418C9.36553 4.22562 8.37145 4.01634 7.18963 4.01634H4.64134V16.0746ZM27.8001 13.4616V5.31818H31.7333V19.5H27.957V16.924H27.8093C27.4892 17.755 26.9568 18.4228 26.212 18.9276C25.4734 19.4323 24.5716 19.6847 23.5068 19.6847C22.5588 19.6847 21.7248 19.4692 21.0046 19.0384C20.2845 18.6075 19.7212 17.995 19.315 17.201C18.9149 16.407 18.7118 15.456 18.7056 14.348V5.31818H22.6389V13.6463C22.645 14.4834 22.8697 15.1451 23.3129 15.6314C23.756 16.1177 24.35 16.3608 25.0948 16.3608C25.5688 16.3608 26.012 16.2531 26.4244 16.0376C26.8368 15.8161 27.1692 15.4898 27.4215 15.0589C27.68 14.6281 27.8062 14.0956 27.8001 13.4616ZM40.5071 19.777C39.0545 19.777 37.8049 19.4692 36.7585 18.8537C35.7183 18.232 34.9181 17.3703 34.358 16.2685C33.804 15.1667 33.527 13.8987 33.527 12.4645C33.527 11.0118 33.8071 9.73769 34.3672 8.64204C34.9335 7.54025 35.7368 6.68158 36.777 6.06605C37.8172 5.44437 39.0545 5.13352 40.4886 5.13352C41.7259 5.13352 42.8092 5.35819 43.7386 5.80753C44.6681 6.25686 45.4037 6.88778 45.9453 7.70028C46.487 8.51278 46.7855 9.46686 46.8409 10.5625H43.1293C43.0246 9.85464 42.7476 9.28527 42.2983 8.8544C41.8551 8.41738 41.2735 8.19886 40.5533 8.19886C39.9439 8.19886 39.4115 8.36506 38.956 8.69744C38.5066 9.02367 38.1558 9.50071 37.9034 10.1286C37.6511 10.7564 37.5249 11.5166 37.5249 12.4091C37.5249 13.3139 37.648 14.0833 37.8942 14.7173C38.1466 15.3513 38.5005 15.8345 38.956 16.1669C39.4115 16.4993 39.9439 16.6655 40.5533 16.6655C41.0026 16.6655 41.4058 16.5732 41.7628 16.3885C42.126 16.2038 42.4245 15.9361 42.6584 15.5852C42.8985 15.2282 43.0554 14.8004 43.1293 14.3018H46.8409C46.7794 15.3852 46.4839 16.3393 45.9546 17.1641C45.4314 17.9827 44.7081 18.6229 43.7848 19.0845C42.8615 19.5462 41.769 19.777 40.5071 19.777ZM52.1431 15.419L52.1524 10.701H52.7248L57.2674 5.31818H61.7823L55.6794 12.446H54.7468L52.1431 15.419ZM48.5792 19.5V0.590909H52.5125V19.5H48.5792ZM57.4428 19.5L53.2696 13.3232L55.8917 10.544L62.0501 19.5H57.4428Z" fill="#EAB308"/>
<path d="M73.2637 6.02912C73.1898 5.28433 72.8728 4.70573 72.3127 4.29332C71.7526 3.88092 70.9924 3.67471 70.0322 3.67471C69.3797 3.67471 68.8288 3.76704 68.3795 3.9517C67.9301 4.13021 67.5854 4.3795 67.3454 4.69957C67.1115 5.01965 66.9945 5.38281 66.9945 5.78906C66.9822 6.1276 67.053 6.42306 67.2069 6.67543C67.3669 6.92779 67.5854 7.14631 67.8624 7.33097C68.1394 7.50947 68.4595 7.66643 68.8227 7.80185C69.1858 7.93111 69.5736 8.0419 69.986 8.13423L71.6849 8.54048C72.5097 8.72514 73.2668 8.97135 73.9562 9.27912C74.6456 9.58688 75.2426 9.96544 75.7474 10.4148C76.2521 10.8641 76.643 11.3935 76.92 12.0028C77.2031 12.6122 77.3477 13.3108 77.3539 14.0987C77.3477 15.2559 77.0523 16.2592 76.4675 17.1087C75.8889 17.9519 75.0518 18.6075 73.9562 19.0753C72.8667 19.5369 71.5525 19.7678 70.0137 19.7678C68.4872 19.7678 67.1576 19.5339 66.0251 19.0661C64.8986 18.5982 64.0184 17.9058 63.3844 16.9886C62.7566 16.0653 62.4273 14.9235 62.3965 13.5632H66.2651C66.3082 14.1972 66.4898 14.7266 66.8099 15.1513C67.1361 15.5698 67.57 15.8868 68.1117 16.1023C68.6595 16.3116 69.2781 16.4162 69.9675 16.4162C70.6446 16.4162 71.2325 16.3177 71.731 16.1207C72.2358 15.9238 72.6266 15.6499 72.9036 15.299C73.1806 14.9482 73.3191 14.545 73.3191 14.0895C73.3191 13.6648 73.1929 13.3078 72.9405 13.0185C72.6943 12.7292 72.3312 12.483 71.8511 12.2798C71.3771 12.0767 70.7954 11.892 70.106 11.7259L68.0471 11.2088C66.4529 10.821 65.1941 10.2147 64.2708 9.38991C63.3475 8.5651 62.8889 7.45407 62.8951 6.05682C62.8889 4.91193 63.1936 3.91169 63.8092 3.05611C64.4308 2.20052 65.2834 1.53267 66.3667 1.05256C67.45 0.572443 68.6811 0.332386 70.0599 0.332386C71.4633 0.332386 72.6882 0.572443 73.7346 1.05256C74.7871 1.53267 75.6058 2.20052 76.1905 3.05611C76.7753 3.91169 77.0769 4.9027 77.0954 6.02912H73.2637ZM83.1224 11.3011V19.5H79.1891V0.590909H83.0116V7.82031H83.1778C83.4978 6.98319 84.0149 6.32765 84.7289 5.85369C85.4429 5.37358 86.3385 5.13352 87.4157 5.13352C88.4005 5.13352 89.2592 5.34896 89.9917 5.77983C90.7303 6.20454 91.3028 6.817 91.709 7.61719C92.1214 8.41122 92.3245 9.36222 92.3184 10.4702V19.5H88.3852V11.1719C88.3913 10.2978 88.1697 9.61766 87.7204 9.13139C87.2772 8.64512 86.6555 8.40199 85.8553 8.40199C85.3198 8.40199 84.8459 8.51586 84.4335 8.74361C84.0272 8.97135 83.7071 9.30374 83.4732 9.74077C83.2455 10.1716 83.1285 10.6918 83.1224 11.3011ZM101.041 19.777C99.6072 19.777 98.3669 19.4723 97.3205 18.8629C96.2803 18.2474 95.477 17.3918 94.9107 16.2962C94.3444 15.1944 94.0613 13.9171 94.0613 12.4645C94.0613 10.9995 94.3444 9.71922 94.9107 8.62358C95.477 7.52178 96.2803 6.66619 97.3205 6.05682C98.3669 5.44129 99.6072 5.13352 101.041 5.13352C102.476 5.13352 103.713 5.44129 104.753 6.05682C105.799 6.66619 106.606 7.52178 107.172 8.62358C107.738 9.71922 108.022 10.9995 108.022 12.4645C108.022 13.9171 107.738 15.1944 107.172 16.2962C106.606 17.3918 105.799 18.2474 104.753 18.8629C103.713 19.4723 102.476 19.777 101.041 19.777ZM101.06 16.7301C101.712 16.7301 102.257 16.5455 102.694 16.1761C103.131 15.8007 103.46 15.2898 103.682 14.6435C103.91 13.9972 104.024 13.2616 104.024 12.4368C104.024 11.612 103.91 10.8764 103.682 10.2301C103.46 9.58381 103.131 9.07292 102.694 8.69744C102.257 8.32197 101.712 8.13423 101.06 8.13423C100.401 8.13423 99.8473 8.32197 99.3979 8.69744C98.9548 9.07292 98.6193 9.58381 98.3916 10.2301C98.17 10.8764 98.0592 11.612 98.0592 12.4368C98.0592 13.2616 98.17 13.9972 98.3916 14.6435C98.6193 15.2898 98.9548 15.8007 99.3979 16.1761C99.8473 16.5455 100.401 16.7301 101.06 16.7301ZM109.799 24.8182V5.31818H113.677V7.70028H113.852C114.025 7.31865 114.274 6.93087 114.6 6.53693C114.933 6.13684 115.363 5.80445 115.893 5.53977C116.428 5.26894 117.093 5.13352 117.887 5.13352C118.921 5.13352 119.875 5.40436 120.749 5.94602C121.623 6.48153 122.322 7.29096 122.845 8.37429C123.368 9.45147 123.63 10.8026 123.63 12.4276C123.63 14.0095 123.375 15.3452 122.864 16.4347C122.359 17.518 121.67 18.3397 120.796 18.8999C119.928 19.4538 118.955 19.7308 117.878 19.7308C117.115 19.7308 116.465 19.6046 115.93 19.3523C115.4 19.0999 114.966 18.7829 114.628 18.4013C114.289 18.0135 114.031 17.6226 113.852 17.2287H113.732V24.8182H109.799ZM113.649 12.4091C113.649 13.2524 113.766 13.9879 114 14.6158C114.234 15.2436 114.572 15.733 115.016 16.0838C115.459 16.4285 115.997 16.6009 116.631 16.6009C117.272 16.6009 117.813 16.4254 118.256 16.0746C118.7 15.7176 119.035 15.2251 119.263 14.5973C119.497 13.9633 119.614 13.2339 119.614 12.4091C119.614 11.5904 119.5 10.8703 119.272 10.2486C119.044 9.62689 118.709 9.14062 118.266 8.78977C117.822 8.43892 117.278 8.26349 116.631 8.26349C115.991 8.26349 115.45 8.43276 115.006 8.77131C114.569 9.10985 114.234 9.58996 114 10.2116C113.766 10.8333 113.649 11.5658 113.649 12.4091Z" fill="#2581EB"/>
</svg>
