<svg width="131" height="16" viewBox="0 0 131 16" fill="none" xmlns="http://www.w3.org/2000/svg">
<path d="M9.87162 4.77166H7.87943C7.82261 4.44496 7.71785 4.15554 7.56515 3.90341C7.41245 3.64773 7.22247 3.43111 6.9952 3.25355C6.76792 3.07599 6.50869 2.94283 6.2175 2.85405C5.92985 2.76172 5.61913 2.71555 5.28532 2.71555C4.69228 2.71555 4.16672 2.8647 3.70862 3.163C3.25052 3.45774 2.89186 3.89098 2.63262 4.46271C2.37339 5.03089 2.24378 5.72514 2.24378 6.54545C2.24378 7.37997 2.37339 8.0831 2.63262 8.65483C2.89541 9.22301 3.25407 9.6527 3.70862 9.94389C4.16672 10.2315 4.69051 10.3754 5.28 10.3754C5.6067 10.3754 5.9121 10.3327 6.19619 10.2475C6.48383 10.1587 6.74129 10.0291 6.96856 9.85866C7.19939 9.68821 7.39292 9.47869 7.54917 9.23011C7.70897 8.98153 7.81906 8.69744 7.87943 8.37784L9.87162 8.38849C9.79704 8.90696 9.63547 9.39347 9.38689 9.84801C9.14186 10.3026 8.82048 10.7038 8.42275 11.0518C8.02503 11.3963 7.55983 11.6662 7.02716 11.8615C6.49449 12.0533 5.90322 12.1491 5.25336 12.1491C4.29456 12.1491 3.43873 11.9272 2.68589 11.4833C1.93305 11.0394 1.34001 10.3984 0.906772 9.56037C0.473534 8.7223 0.256914 7.71733 0.256914 6.54545C0.256914 5.37003 0.475309 4.36506 0.912099 3.53054C1.34889 2.69247 1.9437 2.05149 2.69655 1.6076C3.44939 1.16371 4.30166 0.941761 5.25336 0.941761C5.86061 0.941761 6.42524 1.02699 6.94726 1.19744C7.46927 1.3679 7.93447 1.61825 8.34285 1.94851C8.75123 2.27521 9.08682 2.67649 9.3496 3.15234C9.61593 3.62464 9.78994 4.16442 9.87162 4.77166ZM16.3799 9.75746L18.8089 3.81818H20.3643L17.0564 12H15.7088L12.4755 3.81818H14.0149L16.3799 9.75746ZM13.5302 3.81818V12H11.6711V3.81818H13.5302ZM19.3096 12V3.81818H21.1527V12H19.3096ZM26.7408 12.1598C25.9418 12.1598 25.2493 11.984 24.6634 11.6325C24.0775 11.2809 23.6229 10.7891 23.2998 10.157C22.9802 9.52486 22.8204 8.78622 22.8204 7.94105C22.8204 7.09588 22.9802 6.35547 23.2998 5.71982C23.6229 5.08416 24.0775 4.59055 24.6634 4.23899C25.2493 3.88743 25.9418 3.71165 26.7408 3.71165C27.5398 3.71165 28.2323 3.88743 28.8182 4.23899C29.4042 4.59055 29.8569 5.08416 30.1765 5.71982C30.4997 6.35547 30.6613 7.09588 30.6613 7.94105C30.6613 8.78622 30.4997 9.52486 30.1765 10.157C29.8569 10.7891 29.4042 11.2809 28.8182 11.6325C28.2323 11.984 27.5398 12.1598 26.7408 12.1598ZM26.7515 10.6151C27.1847 10.6151 27.5469 10.4961 27.8381 10.2582C28.1293 10.0167 28.3459 9.69354 28.488 9.28871C28.6336 8.88388 28.7064 8.43288 28.7064 7.93572C28.7064 7.43501 28.6336 6.98224 28.488 6.57741C28.3459 6.16903 28.1293 5.84411 27.8381 5.60263C27.5469 5.36115 27.1847 5.24041 26.7515 5.24041C26.3076 5.24041 25.9383 5.36115 25.6435 5.60263C25.3523 5.84411 25.1339 6.16903 24.9883 6.57741C24.8463 6.98224 24.7753 7.43501 24.7753 7.93572C24.7753 8.43288 24.8463 8.88388 24.9883 9.28871C25.1339 9.69354 25.3523 10.0167 25.6435 10.2582C25.9383 10.4961 26.3076 10.6151 26.7515 10.6151ZM31.4714 5.40021V3.81818H38.6304V5.40021H35.9831V12H34.1187V5.40021H31.4714ZM40.2409 15.0682V3.81818H42.1372V5.17116H42.249C42.3485 4.9723 42.4887 4.76101 42.6698 4.53729C42.8509 4.31001 43.096 4.11648 43.4049 3.95668C43.7139 3.79332 44.1081 3.71165 44.5875 3.71165C45.2196 3.71165 45.7895 3.87322 46.2973 4.19638C46.8087 4.51598 47.2135 4.99006 47.5118 5.61861C47.8137 6.24361 47.9646 7.01065 47.9646 7.91974C47.9646 8.81818 47.8172 9.58168 47.5225 10.2102C47.2277 10.8388 46.8264 11.3182 46.3186 11.6484C45.8108 11.9787 45.2355 12.1438 44.5928 12.1438C44.124 12.1438 43.7352 12.0657 43.4262 11.9094C43.1173 11.7532 42.8687 11.565 42.6805 11.3448C42.4958 11.1211 42.352 10.9098 42.249 10.7109H42.1691V15.0682H40.2409ZM42.1318 7.90909C42.1318 8.43821 42.2064 8.90163 42.3556 9.29936C42.5083 9.69709 42.7267 10.0078 43.0107 10.2315C43.2984 10.4517 43.6464 10.5618 44.0548 10.5618C44.4809 10.5618 44.8378 10.4482 45.1255 10.2209C45.4131 9.99006 45.6297 9.67578 45.7753 9.27805C45.9245 8.87678 45.999 8.42045 45.999 7.90909C45.999 7.40128 45.9262 6.95028 45.7806 6.55611C45.635 6.16193 45.4184 5.85298 45.1308 5.62926C44.8431 5.40554 44.4845 5.29368 44.0548 5.29368C43.6429 5.29368 43.2931 5.40199 43.0054 5.61861C42.7178 5.83523 42.4994 6.13885 42.3502 6.52947C42.2046 6.9201 42.1318 7.37997 42.1318 7.90909ZM53.313 12.1598C52.4927 12.1598 51.7843 11.9893 51.1877 11.6484C50.5946 11.304 50.1383 10.8175 49.8187 10.1889C49.4991 9.55682 49.3393 8.81286 49.3393 7.95703C49.3393 7.11541 49.4991 6.37678 49.8187 5.74112C50.1419 5.10192 50.5929 4.60476 51.1717 4.24964C51.7505 3.89098 52.4306 3.71165 53.2118 3.71165C53.7161 3.71165 54.1919 3.79332 54.6394 3.95668C55.0904 4.11648 55.4881 4.36506 55.8326 4.70241C56.1806 5.03977 56.454 5.46946 56.6529 5.99148C56.8517 6.50994 56.9512 7.12784 56.9512 7.84517V8.43643H50.2448V7.13672H55.1028C55.0992 6.7674 55.0193 6.43892 54.8631 6.15128C54.7068 5.86009 54.4884 5.63104 54.2079 5.46413C53.9309 5.29723 53.6078 5.21378 53.2384 5.21378C52.8443 5.21378 52.498 5.30966 52.1997 5.50142C51.9014 5.68963 51.6688 5.93821 51.5019 6.24716C51.3386 6.55256 51.2551 6.88814 51.2516 7.25391V8.38849C51.2516 8.86435 51.3386 9.27273 51.5126 9.61364C51.6866 9.95099 51.9299 10.2102 52.2424 10.3913C52.5549 10.5689 52.9206 10.6577 53.3397 10.6577C53.6202 10.6577 53.8741 10.6186 54.1014 10.5405C54.3286 10.4588 54.5257 10.3398 54.6926 10.1836C54.8595 10.0273 54.9856 9.83381 55.0708 9.60298L56.8713 9.8054C56.7576 10.2812 56.541 10.6967 56.2214 11.0518C55.9054 11.4034 55.5005 11.6768 55.0069 11.8722C54.5133 12.0639 53.9487 12.1598 53.313 12.1598ZM57.9756 5.40021V3.81818H65.1347V5.40021H62.4874V12H60.623V5.40021H57.9756ZM68.0502 6.48153H70.4632C71.5072 6.48153 72.3151 6.73544 72.8869 7.24325C73.4586 7.75107 73.7462 8.4169 73.7498 9.24077C73.7462 9.77699 73.6148 10.2528 73.3556 10.6683C73.0999 11.0838 72.7271 11.4105 72.237 11.6484C71.7505 11.8828 71.1592 12 70.4632 12H66.7452V3.81818H68.6042V10.418H70.4632C70.8822 10.418 71.2267 10.3114 71.4966 10.0984C71.7665 9.88175 71.9014 9.60476 71.9014 9.2674C71.9014 8.91229 71.7665 8.62287 71.4966 8.39915C71.2267 8.17543 70.8822 8.06357 70.4632 8.06357H68.0502V6.48153ZM80.4716 15.0682C80.2088 15.0682 79.9656 15.0469 79.7418 15.0043C79.5217 14.9652 79.3459 14.919 79.2145 14.8658L79.6619 13.3636C79.9425 13.4453 80.1928 13.4844 80.413 13.4808C80.6332 13.4773 80.8267 13.408 80.9936 13.2731C81.1641 13.1417 81.3079 12.9215 81.4251 12.6126L81.5902 12.1705L78.6232 3.81818H80.6687L82.5543 9.99716H82.6396L84.5306 3.81818H86.5813L83.3054 12.9908C83.1527 13.424 82.9503 13.7951 82.6982 14.104C82.446 14.4165 82.1371 14.6545 81.7713 14.8178C81.4091 14.9847 80.9759 15.0682 80.4716 15.0682ZM87.5432 5.40021V3.81818H94.7023V5.40021H92.0549V12H90.1906V5.40021H87.5432ZM99.5447 12.1598C98.7457 12.1598 98.0532 11.984 97.4673 11.6325C96.8814 11.2809 96.4268 10.7891 96.1037 10.157C95.7841 9.52486 95.6243 8.78622 95.6243 7.94105C95.6243 7.09588 95.7841 6.35547 96.1037 5.71982C96.4268 5.08416 96.8814 4.59055 97.4673 4.23899C98.0532 3.88743 98.7457 3.71165 99.5447 3.71165C100.344 3.71165 101.036 3.88743 101.622 4.23899C102.208 4.59055 102.661 5.08416 102.98 5.71982C103.304 6.35547 103.465 7.09588 103.465 7.94105C103.465 8.78622 103.304 9.52486 102.98 10.157C102.661 10.7891 102.208 11.2809 101.622 11.6325C101.036 11.984 100.344 12.1598 99.5447 12.1598ZM99.5554 10.6151C99.9886 10.6151 100.351 10.4961 100.642 10.2582C100.933 10.0167 101.15 9.69354 101.292 9.28871C101.437 8.88388 101.51 8.43288 101.51 7.93572C101.51 7.43501 101.437 6.98224 101.292 6.57741C101.15 6.16903 100.933 5.84411 100.642 5.60263C100.351 5.36115 99.9886 5.24041 99.5554 5.24041C99.1115 5.24041 98.7422 5.36115 98.4474 5.60263C98.1562 5.84411 97.9378 6.16903 97.7922 6.57741C97.6502 6.98224 97.5792 7.43501 97.5792 7.93572C97.5792 8.43288 97.6502 8.88388 97.7922 9.28871C97.9378 9.69354 98.1562 10.0167 98.4474 10.2582C98.7422 10.4961 99.1115 10.6151 99.5554 10.6151ZM112.011 3.81818V12H110.157V3.81818H112.011ZM111.143 7.51491V9.09162C110.933 9.18395 110.695 9.2674 110.429 9.34197C110.166 9.413 109.887 9.46982 109.593 9.51243C109.301 9.55504 109.01 9.57635 108.719 9.57635C107.625 9.57635 106.761 9.33132 106.125 8.84126C105.493 8.34766 105.177 7.57884 105.177 6.5348V3.80753H107.02V6.5348C107.02 6.88636 107.082 7.16868 107.206 7.38175C107.331 7.59482 107.519 7.75107 107.771 7.8505C108.023 7.94638 108.339 7.99432 108.719 7.99432C109.145 7.99432 109.55 7.9517 109.934 7.86648C110.317 7.78125 110.72 7.66406 111.143 7.51491ZM117.648 12.1598C116.828 12.1598 116.12 11.9893 115.523 11.6484C114.93 11.304 114.474 10.8175 114.154 10.1889C113.834 9.55682 113.675 8.81286 113.675 7.95703C113.675 7.11541 113.834 6.37678 114.154 5.74112C114.477 5.10192 114.928 4.60476 115.507 4.24964C116.086 3.89098 116.766 3.71165 117.547 3.71165C118.051 3.71165 118.527 3.79332 118.975 3.95668C119.426 4.11648 119.823 4.36506 120.168 4.70241C120.516 5.03977 120.789 5.46946 120.988 5.99148C121.187 6.50994 121.287 7.12784 121.287 7.84517V8.43643H114.58V7.13672H119.438C119.435 6.7674 119.355 6.43892 119.198 6.15128C119.042 5.86009 118.824 5.63104 118.543 5.46413C118.266 5.29723 117.943 5.21378 117.574 5.21378C117.18 5.21378 116.833 5.30966 116.535 5.50142C116.237 5.68963 116.004 5.93821 115.837 6.24716C115.674 6.55256 115.59 6.88814 115.587 7.25391V8.38849C115.587 8.86435 115.674 9.27273 115.848 9.61364C116.022 9.95099 116.265 10.2102 116.578 10.3913C116.89 10.5689 117.256 10.6577 117.675 10.6577C117.956 10.6577 118.209 10.6186 118.437 10.5405C118.664 10.4588 118.861 10.3398 119.028 10.1836C119.195 10.0273 119.321 9.83381 119.406 9.60298L121.207 9.8054C121.093 10.2812 120.876 10.6967 120.557 11.0518C120.241 11.4034 119.836 11.6768 119.342 11.8722C118.849 12.0639 118.284 12.1598 117.648 12.1598ZM122.993 12V3.81818H124.921V7.12074H125.624L128.085 3.81818H130.408L127.377 7.83452L130.44 12H128.106L125.864 8.91584H124.921V12H122.993Z" fill="white"/>
</svg>
